<svg width="339" height="326" viewBox="0 0 339 326" fill="none" xmlns="http://www.w3.org/2000/svg">
<g clip-path="url(#clip0_4_29)">
<path fill-rule="evenodd" clip-rule="evenodd" d="M170.935 62.6479C184.508 62.6479 197.502 65.2751 209.475 70.0386C209.033 70.4717 208.592 70.9336 208.151 71.3666L208.095 71.4244C206.744 72.839 205.447 74.3402 204.206 75.8992C203.047 75.4373 201.861 75.0043 200.702 74.6001L187.377 78.6707V74.9754H185.032L184.977 78.4109L179.763 79.9122L179.101 82.4816L172.093 76.4478L181.528 77.4582C179.901 75.1486 169.969 71.3089 166.245 71.3089H162.713C158.906 71.3089 146.961 81.8464 141.526 84.8489L142.795 91.2869L149.637 89.8146L150.713 95.0978L146.271 92.2108C146.243 92.2396 145.085 94.5204 145.085 94.6647C145.085 97.494 145.471 96.1082 145.802 98.6777L130.132 106.242C129.663 104.798 129.166 103.412 128.615 102.027H128.587C125.194 93.5099 120.338 85.9171 114.379 79.6812L114.352 79.7101L114.159 79.508C130.629 68.8261 150.106 62.6479 170.935 62.6479ZM169.528 225.706C182.77 225.706 194.743 231.306 203.406 240.4C212.068 249.466 217.448 261.995 217.448 275.853C217.448 289.682 212.096 302.24 203.406 311.305C194.743 320.37 182.77 326 169.528 326C156.313 326 144.312 320.399 135.65 311.305C126.987 302.24 121.607 289.71 121.607 275.853C121.607 261.995 126.959 249.466 135.65 240.4C144.34 231.335 156.313 225.706 169.528 225.706ZM67.811 78.2088C81.0532 78.2088 93.0264 83.8096 101.689 92.9036C110.352 101.969 115.731 114.498 115.731 128.356C115.731 142.185 110.379 154.743 101.689 163.808C93.0264 172.874 81.0532 178.503 67.811 178.503C54.5964 178.503 42.5957 172.874 33.9331 163.808C25.2705 154.743 19.8909 142.214 19.8909 128.356C19.8909 114.498 25.2429 101.969 33.9331 92.9036C42.6233 83.8096 54.5964 78.2088 67.811 78.2088ZM86.157 115.22L74.3218 117.183C73.7148 115.624 73.1907 114.527 72.7217 113.921C72.2527 113.315 71.4526 112.708 70.3491 112.102V121.716C76.7771 123.506 81.0808 125.411 83.2327 127.403C86.0742 130.088 87.5088 133.495 87.5088 137.623C87.5088 140.019 86.9846 142.242 85.9639 144.263C84.9431 146.284 83.6189 147.959 82.0188 149.316C80.4187 150.673 78.7358 151.654 76.915 152.26C75.1218 152.867 72.9148 153.213 70.3215 153.329V157.659H65.6868V153.329C62.5693 153.04 60.0588 152.52 58.1001 151.77C56.1689 151.019 54.4861 149.951 53.0791 148.594C51.6721 147.266 50.5962 145.793 49.8237 144.234C49.0513 142.676 48.4995 140.799 48.1133 138.576L60.9416 137.017C61.3279 139.211 61.852 140.77 62.4866 141.752C63.1211 142.704 64.197 143.57 65.6868 144.321V132.571C61.3831 131.33 58.3484 130.261 56.5552 129.338C54.762 128.443 53.217 126.97 51.8928 124.949C50.5686 122.928 49.9065 120.503 49.9065 117.616C49.9065 113.661 51.2307 110.37 53.8792 107.714C56.5276 105.058 60.4451 103.586 65.6592 103.297V99.0241H70.2939V103.326C75.0391 103.643 78.6807 104.798 81.1912 106.848C83.7292 108.898 85.3845 111.669 86.157 115.22ZM65.7143 111.929C64.335 112.391 63.397 112.968 62.8728 113.661C62.3486 114.354 62.0728 115.162 62.0728 116.086C62.0728 117.039 62.3486 117.905 62.8728 118.627C63.4246 119.349 64.3625 119.955 65.7143 120.446V111.929ZM70.3215 144.696C72.1147 144.263 73.439 143.57 74.2666 142.618C75.0942 141.665 75.5356 140.568 75.5356 139.355C75.5356 138.316 75.177 137.335 74.4597 136.468C73.7424 135.602 72.363 134.765 70.3215 134.015V144.696ZM254.609 69.9231C267.851 69.9231 279.824 75.5239 288.487 84.618C297.149 93.6831 302.529 106.213 302.529 120.07C302.529 133.899 297.177 146.457 288.487 155.523C279.824 164.588 267.851 170.217 254.609 170.217C241.394 170.217 229.393 164.617 220.731 155.523C212.068 146.457 206.688 133.928 206.688 120.07C206.688 106.213 212.041 93.6831 220.731 84.618C229.393 75.5239 241.366 69.9231 254.609 69.9231ZM252.705 114.874H262.609V123.044H253.864C253.753 124.978 253.422 126.71 252.843 128.241C252.374 129.424 251.629 130.637 250.553 131.907C251.767 131.618 252.815 131.503 253.671 131.503C254.774 131.503 256.236 131.734 258.002 132.167C260.43 132.744 262.388 133.033 263.851 133.033C265.037 133.033 266.085 132.917 266.968 132.715C267.851 132.513 269.01 132.051 270.444 131.387L274.886 141.578C272.734 142.704 270.858 143.484 269.203 143.917C267.575 144.35 265.837 144.552 263.961 144.552C261.919 144.552 259.574 144.177 256.954 143.426C253.505 142.445 251.353 141.867 250.526 141.694C249.698 141.55 248.815 141.463 247.85 141.463C245.036 141.463 241.946 142.473 238.58 144.552L234.359 134.852C238.939 131.416 241.229 128.01 241.229 124.574C241.229 124.372 241.201 123.881 241.146 123.044H234.332V114.874H239.215C238.387 111.871 237.918 110.139 237.808 109.648C237.67 108.926 237.614 108.032 237.614 106.963C237.614 104.134 238.332 101.565 239.794 99.3128C241.228 97.0609 243.132 95.4153 245.477 94.4049C247.822 93.3944 250.995 92.8748 254.995 92.8748C258.719 92.8748 261.699 93.3078 263.878 94.2028C266.058 95.0689 267.906 96.5413 269.396 98.5622C270.913 100.612 271.934 103.066 272.513 105.953L260.043 107.974C259.437 105.549 258.692 103.961 257.892 103.152C257.092 102.373 256.154 101.969 255.133 101.969C253.864 101.969 252.871 102.402 252.098 103.268C251.326 104.134 250.939 105.347 250.939 106.934C250.939 107.772 251.022 108.58 251.16 109.36C251.27 110.139 251.822 111.987 252.705 114.874ZM177.39 283.763H166.686C166.796 286.91 167.624 289.249 169.141 290.75C170.659 292.251 173.169 293.002 176.673 293.002C178.935 293.002 180.949 292.655 182.715 291.933L184.204 301.576C181.17 302.298 178.163 302.644 175.183 302.644C169.003 302.644 164.093 300.97 160.424 297.621C156.754 294.272 154.823 289.624 154.658 283.734H149.002V278.018H154.658V273.63H149.002V267.914H154.768C155.209 261.995 157.334 257.347 161.141 254.027C164.976 250.707 169.997 249.033 176.259 249.033C178.687 249.033 181.335 249.408 184.204 250.159L182.715 259.859C180.921 259.108 179.018 258.733 176.976 258.733C173.804 258.733 171.404 259.484 169.748 260.985C168.065 262.486 167.1 264.796 166.796 267.942H177.39V273.659H166.686V278.018H177.39V283.763ZM323.882 214.822L329.206 223.858C330.862 226.658 334.338 227.524 337.014 225.792C345.4 220.365 324.516 192.072 320.902 191.755C319.164 191.61 317.537 192.303 316.378 193.516L297.894 213.176C295.687 215.515 295.742 219.268 297.977 221.577C300.211 223.887 303.798 223.829 306.005 221.491L312.322 214.793C309.095 230.671 303.356 245.366 295.88 258.242C285.093 276.806 270.72 291.5 255.022 300.45C252.264 302.009 251.243 305.618 252.733 308.505C254.222 311.392 257.671 312.46 260.43 310.901C277.893 301.027 293.783 284.803 305.591 264.449C314.088 249.812 320.489 232.981 323.882 214.822ZM213.806 17.8994L208.978 8.54553C207.489 5.65853 208.509 2.07865 211.268 0.490798C219.958 -4.4171 232.925 28.6679 231.38 32.1323C230.635 33.8068 229.255 34.9038 227.655 35.3369L202.136 42.2657C199.102 43.074 196.012 41.1686 195.239 37.9929C194.467 34.8172 196.288 31.5838 199.322 30.7754L208.04 28.4081C193.308 23.4136 178.273 21.2483 163.872 21.5948C143.126 22.0856 123.759 27.7441 108.503 37.531C105.827 39.2632 102.323 38.3682 100.696 35.5678C99.0405 32.7675 99.8957 29.101 102.572 27.3976C119.483 16.5136 140.864 10.22 163.596 9.70033C179.956 9.29615 197.088 11.8944 213.806 17.8994ZM15.1182 214.822L9.7937 223.858C8.13843 226.658 4.66236 227.524 1.98633 225.792C-6.40039 220.365 14.4836 192.072 18.0977 191.755C19.8357 191.61 21.4634 192.303 22.6221 193.516L41.106 213.176C43.313 215.515 43.2578 219.268 41.0232 221.577C38.7886 223.887 35.2021 223.829 32.9951 221.491L26.7051 214.793C29.9329 230.671 35.6711 245.366 43.1475 258.242C53.9343 276.806 68.28 291.5 84.0051 300.45C86.7639 302.009 87.7847 305.618 86.2949 308.505C84.8052 311.392 81.3567 312.46 78.5979 310.901C61.1348 301.027 45.2441 284.803 33.4365 264.449C24.9119 249.812 18.5115 232.981 15.1182 214.822ZM278.941 183.96C276.651 218.228 259.795 248.282 234.801 267.423C234.056 261.187 232.511 255.182 230.276 249.523H230.249C226.855 241.007 222 233.414 216.013 227.178L215.986 227.207C209.944 220.884 202.716 215.774 194.66 212.281V212.252C192.122 211.155 189.501 210.202 186.825 209.452C191.846 201.628 202.357 189.647 202.578 179.543C197.75 179.976 199.957 180.784 195.515 180.784C193.419 180.784 193.584 178.936 193.17 177.089C197.778 175.963 203.792 172.96 208.013 168.601L208.04 168.63L208.095 168.716C214.137 175.039 221.393 180.12 229.448 183.613C237.256 186.991 245.753 188.868 254.526 188.868C263.133 188.868 271.354 187.135 278.941 183.96ZM104.531 265.402C84.1431 248.802 69.5491 224.695 64.5833 197.067C65.6592 197.124 66.7627 197.153 67.8386 197.153C76.6943 197.153 85.1914 195.277 92.9988 191.899V191.87C100.558 188.579 107.317 183.96 113.028 178.33C115.152 182.92 120.531 191.812 123.897 191.812H128.587C133.719 191.812 132.863 189.358 137.995 189.358H139.181C142.436 189.358 141.995 190.311 142.712 193.054H147.43V202.898C147.43 203.736 149.113 206.565 150.685 209.914C148.561 210.578 146.464 211.357 144.423 212.252V212.281C136.395 215.774 129.166 220.855 123.152 227.149L123.097 227.236C117.083 233.558 112.2 241.093 108.889 249.495H108.862C106.793 254.576 105.331 259.888 104.531 265.402ZM133.498 132.167C135.981 131.099 136.339 129.107 139.153 129.107H149.719V137.71L161.362 142.906L162.465 137.652C167.734 138.951 169.114 141.405 175.597 141.405H177.942C182.411 141.405 182.632 135.198 182.632 130.348L173.224 131.33L169.141 122.005L165.058 123.131C165.803 126.479 166.189 125.094 166.189 127.894C166.189 129.54 164.893 129.742 163.844 130.348L159.761 119.522L151.016 112.968L149.857 114.152L157.306 122.351C156.313 125.296 156.203 133.812 152.092 127.836L155.927 125.902L146.354 115.393L140.615 117.732L134.96 123.419C134.712 125.411 134.325 126.97 133.636 128.096V128.298C133.608 129.626 133.581 130.897 133.498 132.167ZM132.67 116.808H133.277L132.201 114.21C132.367 115.076 132.532 115.942 132.67 116.808ZM83.3982 234.482C77.0254 224.349 72.2527 213.003 69.4387 200.877L88.502 210.491L88.6123 216.438C88.6123 218.632 85.0535 223.281 83.9224 225.042L83.3982 234.482Z" fill="white" fill-opacity="0.5"/>
</g>
<defs>
<clipPath id="clip0_4_29">
<rect width="339" height="326" fill="white"/>
</clipPath>
</defs>
</svg>
